<?xml version="1.0" encoding="utf-8"?>
<!-- Generator: Adobe Illustrator 24.0.2, SVG Export Plug-In . SVG Version: 6.00 Build 0)  -->
<svg version="1.1" xmlns="http://www.w3.org/2000/svg" xmlns:xlink="http://www.w3.org/1999/xlink" x="0px" y="0px"
	 viewBox="0 0 1171.5 288.75" style="enable-background:new 0 0 1171.5 288.75;" xml:space="preserve">
<style type="text/css">
	.st0{fill:#FF0000;stroke:#000000;stroke-miterlimit:10;}
	.st1{fill:#FFFFFF;stroke:#000000;stroke-miterlimit:10;}
	.st2{font-family:'Arial-BoldMT';}
	.st3{font-size:100px;}
	.st4{fill:#39B54A;stroke:#000000;stroke-miterlimit:10;}
	.st5{fill:#F2F2F2;stroke:#000000;stroke-miterlimit:10;}
	.st6{fill:#2E3192;stroke:#000000;stroke-miterlimit:10;}
	.st7{fill:#333333;stroke:#000000;stroke-miterlimit:10;}
	.st8{fill:#FFFFFF;}
</style>
<g id="Layer_2">
</g>
<g id="Layer_1">
</g>
<g id="Layer_3">
	<g>
		<circle class="st0" cx="437.75" cy="144" r="143"/>
		<path class="st1" d="M578.99,162.5h-96.87l68.36,68.36c-7.78,10.06-16.86,19.05-27,26.74l-68.23-68.23v96.01
			c-5.89,0.74-11.9,1.12-18,1.12c-6.79,0-13.46-0.47-20-1.39v-95.74l-67.36,67.36c-10.06-7.78-19.05-16.86-26.74-27l67.23-67.23
			h-94.87c-0.83-6.21-1.26-12.56-1.26-19s0.43-12.79,1.26-19h94.87l-67.23-67.23c7.69-10.14,16.68-19.22,26.74-27l67.36,67.36V1.89
			c6.54-0.92,13.21-1.39,20-1.39c6.1,0,12.11,0.38,18,1.12v96.01l68.23-68.23c10.14,7.69,19.22,16.68,27,26.74l-68.36,68.36h96.87
			c0.83,6.21,1.26,12.56,1.26,19S579.82,156.29,578.99,162.5z"/>
		<ellipse class="st0" cx="437.75" cy="144" rx="113" ry="114"/>
		<text transform="matrix(1 0 0 1 385.75 175)" class="st2 st3">$2</text>
	</g>
	<g>
		<circle class="st4" cx="733" cy="144" r="143"/>
		<path class="st1" d="M874.24,162.5h-96.87l68.36,68.36c-7.78,10.06-16.86,19.05-27,26.74l-68.23-68.23v96.01
			c-5.89,0.74-11.9,1.12-18,1.12c-6.79,0-13.46-0.47-20-1.39v-95.74l-67.36,67.36c-10.06-7.78-19.05-16.86-26.74-27l67.23-67.23
			h-94.87c-0.83-6.21-1.26-12.56-1.26-19s0.43-12.79,1.26-19h94.87L618.4,57.27c7.69-10.14,16.68-19.22,26.74-27l67.36,67.36V1.89
			c6.54-0.92,13.21-1.39,20-1.39c6.1,0,12.11,0.38,18,1.12v96.01l68.23-68.23c10.14,7.69,19.22,16.68,27,26.74l-68.36,68.36h96.87
			c0.83,6.21,1.26,12.56,1.26,19S875.07,156.29,874.24,162.5z"/>
		<ellipse class="st4" cx="733" cy="144" rx="113" ry="114"/>
		<text transform="matrix(1 0 0 1 677 177)" class="st2 st3">$5</text>
	</g>
	<g>
		<circle class="st5" cx="144" cy="144" r="143"/>
		<path class="st6" d="M285.24,162.5h-96.87l68.36,68.36c-7.78,10.06-16.86,19.05-27,26.74l-68.23-68.23v96.01
			c-5.89,0.74-11.9,1.12-18,1.12c-6.79,0-13.46-0.47-20-1.39v-95.74l-67.36,67.36c-10.06-7.78-19.05-16.86-26.74-27l67.23-67.23
			H1.76c-0.83-6.21-1.26-12.56-1.26-19s0.43-12.79,1.26-19h94.87L29.4,57.27c7.69-10.14,16.68-19.22,26.74-27l67.36,67.36V1.89
			c6.54-0.92,13.21-1.39,20-1.39c6.1,0,12.11,0.38,18,1.12v96.01l68.23-68.23c10.14,7.69,19.22,16.68,27,26.74l-68.36,68.36h96.87
			c0.83,6.21,1.26,12.56,1.26,19S286.07,156.29,285.24,162.5z"/>
		<ellipse class="st5" cx="144" cy="144" rx="113" ry="114"/>
		<text transform="matrix(1 0 0 1 92 175)" class="st2 st3">$1</text>
	</g>
	<g>
		<circle class="st7" cx="1028" cy="145.25" r="143"/>
		<path class="st1" d="M1169.24,163.75h-96.87l68.36,68.36c-7.78,10.06-16.86,19.05-27,26.74l-68.23-68.23v96.01
			c-5.89,0.74-11.9,1.12-18,1.12c-6.79,0-13.46-0.47-20-1.39v-95.74l-67.36,67.36c-10.06-7.78-19.05-16.86-26.74-27l67.23-67.23
			h-94.87c-0.83-6.21-1.26-12.56-1.26-19s0.43-12.79,1.26-19h94.87L913.4,58.52c7.69-10.14,16.68-19.22,26.74-27l67.36,67.36V3.14
			c6.54-0.92,13.21-1.39,20-1.39c6.1,0,12.11,0.38,18,1.12v96.01l68.23-68.23c10.14,7.69,19.22,16.68,27,26.74l-68.36,68.36h96.87
			c0.83,6.21,1.26,12.56,1.26,19S1170.07,157.54,1169.24,163.75z"/>
		<ellipse class="st7" cx="1028" cy="145.25" rx="113" ry="114"/>
		<text transform="matrix(1 0 0 1 947 178.25)" class="st8 st2 st3">$10</text>
	</g>
</g>
</svg>
