<?xml version="1.0" encoding="utf-8"?>
<!-- Generator: Adobe Illustrator 26.0.3, SVG Export Plug-In . SVG Version: 6.00 Build 0)  -->
<svg version="1.1" id="Layer_1" xmlns="http://www.w3.org/2000/svg" xmlns:xlink="http://www.w3.org/1999/xlink" x="0px" y="0px"
	 viewBox="0 0 229 230" style="enable-background:new 0 0 229 230;" xml:space="preserve">
<style type="text/css">
	.st0{fill:#FFFFFF;}
	.st1{font-family:'MyriadPro-Regular';}
	.st2{font-size:72px;}
</style>
<g>
	<g>
		<path class="st0" d="M229,230c-76.37,0-152.7,0-229,0C0,153.3,0,76.63,0,0c76.37,0,152.7,0,229,0C229,76.7,229,153.37,229,230z
			 M194.57,86.12c5.39,2.16,6.31,8.92,11.89,10.83c0.89,0.3,1.1,2.24,2,2.92c1.67,1.26,3.55,2.66,5.5,2.94
			c0.82,0.12,2.71-2.36,2.91-3.82c0.38-2.78,0.52-5.89-0.34-8.5c-2.4-7.33-4.53-14.94-8.31-21.57c-3.74-6.58-2.68-15.02-8.7-20.46
			c-0.86-0.78-1.71-1.57-2.57-2.36c-0.72,0.88-1.55,1.7-2.14,2.67c-0.61,0.99-0.98,2.13-1.44,3.16c-1.41-0.84-2.57-1.53-4.65-2.77
			c0.57,2.75,0.88,4.22,1.19,5.76c-6.37,0.03-14.28,4.69-14.38,8.12c-3.84,0.3-8.98,2.16-10.98-1.38
			c-1.94-3.44-1.16-8.42-1.72-14.33c5.94,4.29,7.55,0.52,9.55-2c0.98-1.24,1.33-2.98,2.32-4.21c3.15-3.9,1.41-15.2-3.19-17.08
			c-1.74-0.71-5.12,0.04-6.42,1.4c-1.97,2.05-2.77,5.22-3.43,6.59c-6.18,1.64-11.57,2.94-16.86,4.56c-1.99,0.61-3.64,2.28-5.62,2.93
			c-10.04,3.31-15.92,10.33-16.45,20.66c-0.13,2.51,0.43,5.72,1.96,7.52c3.77,4.44,8.29,8.24,12.5,12.29
			c-10.21,9.71-15.26,8.45-25.29-7.25c0,3.5,0,6.4,0,8.39c-8.82,0-17.25,0.09-25.67-0.03c-5.26-0.08-9.89,1.33-13.79,4.89
			c-2.74,2.5-5.19,5.37-8.19,7.49c-2.22,1.57-5.12,3.11-7.69,3.08c-7.87-0.1-15.74-0.87-23.59-1.61c-2.28-0.22-4.49-1.22-6.67-1.85
			c-0.49,1.4-0.94,3.31-1.81,5c-1,1.94-3.4,3.75-3.27,5.48c0.11,1.53,2.85,2.87,4.73,4.55c-4.12,1.96-10.99-0.9-12.3,6.67
			c1.49,0.48,3.2,1.03,6.08,1.96c-2.62,0.88-4.03,1.35-5.49,1.84c2.74,2.06,2.71,1.87,11.05,0.67c6.8-0.97,12.91-3.76,18.14-7.74
			c3.91-2.97,6.59-3.25,9.56,0.21c1.92-1.3,3.59-2.42,5.24-3.53c-1.43-5.49-0.54-6.81,4.53-6.81c0.06,0.16,0.18,0.34,0.16,0.49
			c-0.15,1.25-0.34,2.5-0.49,3.75c-1.11,9.71,0.47,18.7,7.47,26.03c5.78,6.05,5.95,6.35,1.16,13.72c-1.53,2.36-3.38,4.53-5.17,6.7
			c-3.66,4.45-2.69,7.97,1.64,11.79c6.46,5.7,12.43,11.98,18.22,18.36c1.18,1.3,0.81,4.12,0.95,6.25
			c0.34,5.12,0.56,10.25,0.82,15.37c0.8,0.08,1.61,0.15,2.41,0.23c1.19-2.98,2.37-5.96,3.22-8.08c3.57,0.3,6.88,0.22,10,0.96
			c2.84,0.68,5.55,2.13,8.17,3.51c2.42,1.27,4.64,2.91,6.95,4.38c0.35-0.41,0.7-0.82,1.05-1.23c-0.24-1.9-0.48-3.79-0.58-4.61
			c4.11-2.03,7.69-3.86,11.34-5.56c0.75-0.35,1.81-0.48,2.59-0.24c3.95,1.22,7.85,2.6,11.77,3.92c-0.1,0.58-0.19,1.17-0.29,1.75
			c3.52-2.02,7.23-3.78,10.54-6.11c10.36-7.31,10.03-7.46,7.54-20.06c-1.4-7.07-2.68-14.18-3.54-21.33
			c-0.24-1.98,0.62-5.26,2.04-6.05c5.13-2.86,6.89-7.65,8.38-12.61c1.44-4.81,1.62-10.12,3.7-14.58c3.21-6.9,7.56-13.29,11.45-19.87
			C186.96,93.75,187.97,87.76,194.57,86.12z"/>
		<path d="M194.57,86.12c-6.6,1.63-7.61,7.63-10.32,12.22c-3.9,6.59-8.24,12.97-11.45,19.87c-2.08,4.46-2.25,9.77-3.7,14.58
			c-1.49,4.96-3.25,9.74-8.38,12.61c-1.41,0.79-2.28,4.07-2.04,6.05c0.86,7.15,2.14,14.26,3.54,21.33
			c2.49,12.59,2.82,12.75-7.54,20.06c-3.3,2.33-7.01,4.09-10.54,6.11c0.1-0.58,0.19-1.17,0.29-1.75c-3.92-1.32-7.82-2.7-11.77-3.92
			c-0.77-0.24-1.84-0.11-2.59,0.24c-3.65,1.7-7.23,3.53-11.34,5.56c0.1,0.81,0.34,2.71,0.58,4.61c-0.35,0.41-0.7,0.82-1.05,1.23
			c-2.31-1.48-4.53-3.11-6.95-4.38c-2.62-1.38-5.33-2.82-8.17-3.51c-3.12-0.75-6.43-0.66-10-0.96c-0.84,2.12-2.03,5.1-3.22,8.08
			c-0.8-0.08-1.61-0.15-2.41-0.23c-0.27-5.13-0.48-10.25-0.82-15.37c-0.14-2.13,0.23-4.95-0.95-6.25
			c-5.8-6.38-11.77-12.66-18.22-18.36c-4.33-3.82-5.3-7.34-1.64-11.79c1.79-2.18,3.64-4.35,5.17-6.7c4.79-7.37,4.62-7.67-1.16-13.72
			c-7-7.33-8.58-16.32-7.47-26.03c0.14-1.25,0.34-2.5,0.49-3.75c0.02-0.16-0.11-0.33-0.16-0.49c-5.07-0.01-5.96,1.32-4.53,6.81
			c-1.65,1.11-3.32,2.24-5.24,3.53c-2.96-3.46-5.65-3.18-9.56-0.21c-5.23,3.98-11.34,6.76-18.14,7.74
			c-8.34,1.2-8.31,1.39-11.05-0.67c1.47-0.49,2.87-0.96,5.49-1.84c-2.88-0.93-4.58-1.48-6.08-1.96c1.31-7.57,8.17-4.71,12.3-6.67
			c-1.88-1.69-4.62-3.03-4.73-4.55c-0.12-1.73,2.27-3.55,3.27-5.48c0.87-1.69,1.32-3.6,1.81-5c2.18,0.63,4.39,1.64,6.67,1.85
			c7.85,0.74,15.72,1.51,23.59,1.61c2.58,0.03,5.47-1.51,7.69-3.08c3-2.12,5.45-4.99,8.19-7.49c3.9-3.56,8.53-4.97,13.79-4.89
			c8.42,0.13,16.85,0.03,25.67,0.03c0-1.98,0-4.89,0-8.39c10.02,15.7,15.08,16.96,25.29,7.25c-4.21-4.05-8.73-7.85-12.5-12.29
			c-1.53-1.8-2.09-5.01-1.96-7.52c0.53-10.33,6.42-17.35,16.45-20.66c1.98-0.65,3.63-2.32,5.62-2.93
			c5.29-1.62,10.69-2.92,16.86-4.56c0.66-1.37,1.46-4.54,3.43-6.59c1.3-1.36,4.68-2.11,6.42-1.4c4.6,1.88,6.34,13.18,3.19,17.08
			c-0.99,1.23-1.34,2.97-2.32,4.21c-2,2.52-3.61,6.29-9.55,2c0.57,5.91-0.22,10.89,1.72,14.33c2,3.54,7.14,1.68,10.98,1.38
			c0.1-3.43,8.01-8.09,14.38-8.12c-0.32-1.54-0.62-3.01-1.19-5.76c2.08,1.24,3.25,1.93,4.65,2.77c0.46-1.04,0.83-2.17,1.44-3.16
			c0.59-0.97,1.42-1.79,2.14-2.67c0.86,0.79,1.7,1.58,2.57,2.36c6.02,5.44,4.95,13.89,8.7,20.46c3.77,6.63,5.91,14.24,8.31,21.57
			c0.85,2.61,0.72,5.72,0.34,8.5c-0.2,1.46-2.09,3.94-2.91,3.82c-1.95-0.28-3.83-1.68-5.5-2.94c-0.9-0.68-1.11-2.62-2-2.92
			C200.88,95.04,199.96,88.29,194.57,86.12z M123.27,193.66c0.21-0.16,1.87-0.77,2.29-1.85c4.77-12.33,9.36-24.74,13.99-37.13
			c1.57-4.19-0.33-7.47-4.8-6.97c-10.72,1.21-18.74-3.81-26.45-10.13c-6.07-4.98-7.56-4.46-9.42,3.03
			c-2.07,8.34-4.09,16.7-5.98,25.09c-0.24,1.08,0.03,2.71,0.73,3.5c4.03,4.59,7.73,9.49,14.23,11.27c2.07,0.57,5,3.46,4.98,5.26
			C112.76,192.46,116.95,193.28,123.27,193.66z M147.37,159.26c-3.73,7.07-6.71,12.89-9.84,18.63c-2.91,5.33,1.16,13.33,7.09,12.51
			c4.42-0.61,8.91-3.1,12.57-5.82c1.56-1.16,2.28-5.64,1.31-7.57C155.62,171.23,151.7,165.97,147.37,159.26z M83.09,170.02
			c1.69-7.85,3.2-14.86,4.86-22.54C76.42,152.22,74.56,161.13,83.09,170.02z M92.58,177.93c-0.47,0.24-0.94,0.48-1.41,0.72
			c0.82,3.55,0.57,9,2.71,10.21c3.65,2.06,8.8,1.45,13.33,1.97c0.2-0.79,0.41-1.58,0.61-2.37
			C102.74,184.95,97.66,181.44,92.58,177.93z"/>
		<path class="st0" d="M123.27,193.66c-6.32-0.38-10.52-1.2-10.44-7.94c0.02-1.8-2.91-4.69-4.98-5.26
			c-6.5-1.78-10.19-6.68-14.23-11.27c-0.7-0.79-0.97-2.42-0.73-3.5c1.89-8.39,3.91-16.74,5.98-25.09c1.86-7.48,3.35-8,9.42-3.03
			c7.72,6.32,15.73,11.34,26.45,10.13c4.47-0.5,6.36,2.78,4.8,6.97c-4.63,12.39-9.22,24.8-13.99,37.13
			C125.14,192.89,123.48,193.5,123.27,193.66z"/>
		<path class="st0" d="M147.37,159.26c4.32,6.71,8.24,11.97,11.14,17.74c0.97,1.93,0.24,6.42-1.31,7.57
			c-3.66,2.72-8.15,5.21-12.57,5.82c-5.93,0.82-10-7.18-7.09-12.51C140.67,172.15,143.65,166.33,147.37,159.26z"/>
		<path class="st0" d="M83.09,170.02c-8.53-8.89-6.67-17.8,4.86-22.54C86.29,155.16,84.78,162.17,83.09,170.02z"/>
		<path class="st0" d="M92.58,177.93c5.08,3.51,10.16,7.02,15.25,10.52c-0.2,0.79-0.41,1.58-0.61,2.37
			c-4.52-0.51-9.68,0.1-13.33-1.97c-2.14-1.21-1.89-6.66-2.71-10.21C91.64,178.41,92.11,178.17,92.58,177.93z"/>
	</g>
</g>
<text id="Number" transform="matrix(1 0 0 1 93.1592 132.7168)" class="st0 st1 st2">20</text>
</svg>
